{
	"asset":{
		"generator":"Khronos glTF Blender I/O v4.3.47",
		"version":"2.0"
	},
	"scene":0,
	"scenes":[
		{
			"name":"Scene",
			"nodes":[
				0
			]
		}
	],
	"nodes":[
		{
			"mesh":0,
			"name":"Cylinder"
		}
	],
	"materials":[
		{
			"doubleSided":true,
			"name":"Material.001",
			"pbrMetallicRoughness":{
				"baseColorTexture":{
					"index":0
				},
				"metallicFactor":0,
				"roughnessFactor":0.5
			}
		}
	],
	"meshes":[
		{
			"name":"Cylinder",
			"primitives":[
				{
					"attributes":{
						"POSITION":0,
						"NORMAL":1,
						"TEXCOORD_0":2
					},
					"indices":3,
					"material":0
				}
			]
		}
	],
	"textures":[
		{
			"sampler":0,
			"source":0
		}
	],
	"images":[
		{
			"mimeType":"image/jpeg",
			"name":"Carl_Friedrich_Gauss",
			"uri":"Carl_Friedrich_Gauss.jpg"
		}
	],
	"accessors":[
		{
			"bufferView":0,
			"componentType":5126,
			"count":6919,
			"max":[
				0.7805444002151489,
				1.0678051710128784,
				1.3742798566818237
			],
			"min":[
				-0.8297012448310852,
				-1.1077628135681152,
				-1.5785950422286987
			],
			"type":"VEC3"
		},
		{
			"bufferView":1,
			"componentType":5126,
			"count":6919,
			"type":"VEC3"
		},
		{
			"bufferView":2,
			"componentType":5126,
			"count":6919,
			"type":"VEC2"
		},
		{
			"bufferView":3,
			"componentType":5123,
			"count":40404,
			"type":"SCALAR"
		}
	],
	"bufferViews":[
		{
			"buffer":0,
			"byteLength":83028,
			"byteOffset":0,
			"target":34962
		},
		{
			"buffer":0,
			"byteLength":83028,
			"byteOffset":83028,
			"target":34962
		},
		{
			"buffer":0,
			"byteLength":55352,
			"byteOffset":166056,
			"target":34962
		},
		{
			"buffer":0,
			"byteLength":80808,
			"byteOffset":221408,
			"target":34963
		}
	],
	"samplers":[
		{
			"magFilter":9729,
			"minFilter":9987
		}
	],
	"buffers":[
		{
			"byteLength":302216,
			"uri":"gauss.bin"
		}
	]
}
