{
	"asset":{
		"generator":"Khronos glTF Blender I/O v4.3.47",
		"version":"2.0"
	},
	"scene":0,
	"scenes":[
		{
			"name":"Scene",
			"nodes":[
				0
			]
		}
	],
	"nodes":[
		{
			"mesh":0,
			"name":"Cube",
			"scale":[
				0.05710038170218468,
				0.05710038170218468,
				0.05710038170218468
			]
		}
	],
	"materials":[
		{
			"doubleSided":true,
			"name":"Material.001",
			"pbrMetallicRoughness":{
				"baseColorTexture":{
					"index":0
				},
				"metallicFactor":0,
				"roughnessFactor":0.5
			}
		}
	],
	"meshes":[
		{
			"name":"Cube.002",
			"primitives":[
				{
					"attributes":{
						"POSITION":0,
						"NORMAL":1,
						"TEXCOORD_0":2
					},
					"indices":3,
					"material":0
				}
			]
		}
	],
	"textures":[
		{
			"sampler":0,
			"source":0
		}
	],
	"images":[
		{
			"mimeType":"image/png",
			"name":"cottage_diffuse.png",
			"uri":"cottage_diffuse_png.png"
		}
	],
	"accessors":[
		{
			"bufferView":0,
			"componentType":5126,
			"count":747,
			"max":[
				16.386308670043945,
				11.08145809173584,
				9.395235061645508
			],
			"min":[
				-17.42803955078125,
				-3.5922927856445312,
				-9.263381958007812
			],
			"type":"VEC3"
		},
		{
			"bufferView":1,
			"componentType":5126,
			"count":747,
			"type":"VEC3"
		},
		{
			"bufferView":2,
			"componentType":5126,
			"count":747,
			"type":"VEC2"
		},
		{
			"bufferView":3,
			"componentType":5123,
			"count":1518,
			"type":"SCALAR"
		}
	],
	"bufferViews":[
		{
			"buffer":0,
			"byteLength":8964,
			"byteOffset":0,
			"target":34962
		},
		{
			"buffer":0,
			"byteLength":8964,
			"byteOffset":8964,
			"target":34962
		},
		{
			"buffer":0,
			"byteLength":5976,
			"byteOffset":17928,
			"target":34962
		},
		{
			"buffer":0,
			"byteLength":3036,
			"byteOffset":23904,
			"target":34963
		}
	],
	"samplers":[
		{
			"magFilter":9729,
			"minFilter":9987
		}
	],
	"buffers":[
		{
			"byteLength":26940,
			"uri":"house.bin"
		}
	]
}
