{
	"asset":{
		"generator":"Khronos glTF Blender I/O v4.3.47",
		"version":"2.0"
	},
	"scene":0,
	"scenes":[
		{
			"name":"Scene",
			"nodes":[
				0
			]
		}
	],
	"nodes":[
		{
			"mesh":0,
			"name":"Sphere.001"
		}
	],
	"materials":[
		{
			"doubleSided":true,
			"name":"Material.002",
			"pbrMetallicRoughness":{
				"baseColorTexture":{
					"index":0
				},
				"metallicFactor":0
			}
		}
	],
	"meshes":[
		{
			"name":"Sphere.001",
			"primitives":[
				{
					"attributes":{
						"POSITION":0,
						"NORMAL":1,
						"TEXCOORD_0":2
					},
					"indices":3,
					"material":0
				}
			]
		}
	],
	"textures":[
		{
			"sampler":0,
			"source":0
		}
	],
	"images":[
		{
			"mimeType":"image/png",
			"name":"map",
			"uri":"../Textures/map.png"
		}
	],
	"accessors":[
		{
			"bufferView":0,
			"componentType":5126,
			"count":2017,
			"max":[
				0.9999997019767761,
				1,
				1
			],
			"min":[
				-0.9999998807907104,
				-0.9999997615814209,
				-1
			],
			"type":"VEC3"
		},
		{
			"bufferView":1,
			"componentType":5126,
			"count":2017,
			"type":"VEC3"
		},
		{
			"bufferView":2,
			"componentType":5126,
			"count":2017,
			"type":"VEC2"
		},
		{
			"bufferView":3,
			"componentType":5123,
			"count":11904,
			"type":"SCALAR"
		}
	],
	"bufferViews":[
		{
			"buffer":0,
			"byteLength":24204,
			"byteOffset":0,
			"target":34962
		},
		{
			"buffer":0,
			"byteLength":24204,
			"byteOffset":24204,
			"target":34962
		},
		{
			"buffer":0,
			"byteLength":16136,
			"byteOffset":48408,
			"target":34962
		},
		{
			"buffer":0,
			"byteLength":23808,
			"byteOffset":64544,
			"target":34963
		}
	],
	"samplers":[
		{
			"magFilter":9729,
			"minFilter":9987
		}
	],
	"buffers":[
		{
			"byteLength":88352,
			"uri":"map.bin"
		}
	]
}
