{
	"asset":{
		"generator":"Khronos glTF Blender I/O v4.3.47",
		"version":"2.0"
	},
	"scene":0,
	"scenes":[
		{
			"name":"Scene",
			"nodes":[
				0
			]
		}
	],
	"nodes":[
		{
			"mesh":0,
			"name":"teapot_tiny"
		}
	],
	"materials":[
		{
			"doubleSided":true,
			"name":"Material.001",
			"pbrMetallicRoughness":{
				"baseColorTexture":{
					"index":0
				},
				"metallicFactor":0,
				"roughnessFactor":0.5
			}
		}
	],
	"meshes":[
		{
			"name":"teapot_tiny",
			"primitives":[
				{
					"attributes":{
						"POSITION":0,
						"NORMAL":1,
						"TEXCOORD_0":2
					},
					"indices":3,
					"material":0
				}
			]
		}
	],
	"textures":[
		{
			"sampler":0,
			"source":0
		}
	],
	"images":[
		{
			"mimeType":"image/jpeg",
			"name":"aee",
			"uri":"aee.jpg"
		}
	],
	"accessors":[
		{
			"bufferView":0,
			"componentType":5126,
			"count":4719,
			"max":[
				1.037772536277771,
				0.4324702322483063,
				0.6113584041595459
			],
			"min":[
				-0.929315984249115,
				-0.526832640171051,
				-0.6115670800209045
			],
			"type":"VEC3"
		},
		{
			"bufferView":1,
			"componentType":5126,
			"count":4719,
			"type":"VEC3"
		},
		{
			"bufferView":2,
			"componentType":5126,
			"count":4719,
			"type":"VEC2"
		},
		{
			"bufferView":3,
			"componentType":5123,
			"count":28314,
			"type":"SCALAR"
		}
	],
	"bufferViews":[
		{
			"buffer":0,
			"byteLength":56628,
			"byteOffset":0,
			"target":34962
		},
		{
			"buffer":0,
			"byteLength":56628,
			"byteOffset":56628,
			"target":34962
		},
		{
			"buffer":0,
			"byteLength":37752,
			"byteOffset":113256,
			"target":34962
		},
		{
			"buffer":0,
			"byteLength":56628,
			"byteOffset":151008,
			"target":34963
		}
	],
	"samplers":[
		{
			"magFilter":9729,
			"minFilter":9987
		}
	],
	"buffers":[
		{
			"byteLength":207636,
			"uri":"tiny_teapet.bin"
		}
	]
}
